<svg width="1021" height="645" viewBox="0 0 1021 645" fill="none" xmlns="http://www.w3.org/2000/svg">
<path fill-rule="evenodd" clip-rule="evenodd" d="M153.142 0.262596C118.334 0.142381 83.5243 0.0221576 48.7338 0.437727L0.157421 0.733227L0.0398215 354.799L0.0493201 539.165C-0.0595476 574.076 0.0118178 608.988 0.26342 643.9L215.155 644.021L281.825 644.02C320.748 644.003 360.176 643.503 398.446 635.478C428.829 629.106 454.113 620.659 480.262 603.417C489.014 597.646 497.537 591.364 504.976 583.943C505.47 583.451 505.964 582.901 506.468 582.34C507.838 580.815 509.286 579.205 511.018 578.419C513.341 579.244 518.449 584.275 523.089 588.845C526.037 591.748 528.795 594.465 530.531 595.799C547.419 608.779 567.162 619.614 587.478 626.043C618.968 636.01 650.752 640.474 683.57 643.022C703.803 644.593 724.387 644.393 744.829 644.195C751.439 644.131 758.034 644.067 764.598 644.063L896.044 644.064L980.838 644.005C983.7 643.999 987.329 644.084 991.244 644.177H991.246H991.249H991.25H991.253H991.255C1000.54 644.395 1011.43 644.652 1017.49 643.81L1019.65 643.302C1021.15 639.108 1020.72 581.514 1020.49 551.354V551.35V551.344V551.341V551.339C1020.44 543.863 1020.4 538.075 1020.4 535.206L1020.44 174.645C1020.44 170.712 1020.47 160.874 1020.5 147.763C1020.65 98.3037 1020.93 2.26962 1020.32 0.979027C1020.18 0.682327 1020.15 0.630789 1020.02 0.435713L1019.96 0.338926L832.961 0.380127L757.486 0.217027C753.242 0.196451 748.99 0.156135 744.733 0.115777C727.642 -0.0462818 710.482 -0.208996 693.466 0.903227C642.873 4.21013 584.897 18.5796 548.282 55.5043C533.052 70.8622 523.26 87.7611 513.978 107.055C513.922 107.17 513.862 107.302 513.797 107.447C513.745 107.563 513.69 107.687 513.632 107.818L513.63 107.822C512.915 109.433 511.769 112.017 510.468 112.043C508.207 109.318 506.859 105.7 505.541 102.162C504.828 100.248 504.123 98.3574 503.288 96.6451C499.607 89.0981 495.085 81.5728 490.111 74.8164C483.241 65.4843 475.242 56.0475 466.479 48.4334C460.986 43.6618 454.815 39.6626 448.688 35.7597C415.618 14.6926 378.032 5.63713 339.383 2.00123C320.498 0.22472 301.443 0.237541 282.485 0.250298L281.319 0.251066L279.985 0.251827L216.89 0.360826C195.645 0.409389 174.394 0.335995 153.142 0.262596ZM271.824 382.223C258.377 380.649 239.526 380.593 225.961 381.362C225.586 381.383 225.195 381.394 224.795 381.404C223.127 381.448 221.315 381.496 219.967 382.357C217.717 389.185 218.461 472.981 219.164 485.095C226.682 486.24 234.417 486.157 242.05 486.075C243.426 486.06 244.799 486.046 246.166 486.038C269.207 485.91 291.178 485.457 311.148 472.527C321.531 464.459 328.657 452.773 330.303 439.616C331.841 427.316 329.027 414.426 321.352 404.536C310.093 390.027 289.234 384.261 271.824 382.223ZM753.879 381.955C769.592 380.831 786.306 381.102 802.059 381.801C802.408 382.43 802.765 383.076 802.914 383.79C803.892 388.485 803.635 400.793 803.447 409.825V409.826C803.383 412.905 803.327 415.604 803.33 417.49L803.343 458.473C803.342 460.682 803.369 462.902 803.395 465.125C803.459 470.529 803.523 475.954 803.203 481.312C803.108 482.907 802.995 484.092 802.081 485.449C793.068 487.481 753.597 485.665 742.816 484.477C730.696 482.555 718.604 478.589 708.846 470.958C708.275 470.508 707.716 470.045 707.169 469.567C706.621 469.089 706.085 468.598 705.562 468.094C705.039 467.59 704.528 467.072 704.031 466.542C703.534 466.012 703.05 465.47 702.579 464.917C702.108 464.363 701.652 463.798 701.21 463.221C700.767 462.645 700.34 462.057 699.927 461.459C699.514 460.861 699.116 460.253 698.733 459.635C698.35 459.017 697.983 458.39 697.631 457.754C697.28 457.118 696.944 456.474 696.625 455.821C696.305 455.169 696.002 454.508 695.715 453.84C695.428 453.172 695.159 452.497 694.906 451.816C694.653 451.135 694.417 450.448 694.198 449.754C693.979 449.061 693.778 448.363 693.594 447.66C693.41 446.957 693.243 446.249 693.094 445.538C692.945 444.827 692.814 444.112 692.701 443.394C692.588 442.676 692.492 441.956 692.415 441.233C690.921 428.372 692.715 414.327 701.07 403.983C713.356 388.773 735.464 383.892 753.879 381.955ZM258.962 153.477C247.623 152.305 235.304 151.986 223.95 152.901C223.707 152.947 223.464 152.987 223.223 153.027L223.223 153.027C221.893 153.248 220.629 153.457 219.658 154.507C218.336 159.269 218.637 174.351 218.841 184.558V184.558V184.559L218.841 184.564C218.902 187.59 218.954 190.187 218.952 191.959C218.947 196.993 218.862 202.082 218.777 207.193L218.777 207.197C218.574 219.414 218.369 231.752 219.244 243.736C240.028 245.547 273.936 246.074 291.373 233.773C299.77 227.323 305.366 218.767 306.683 208.126C308.193 195.93 307.475 182.041 299.537 172.103C289.571 159.627 274.215 155.054 258.962 153.477ZM517.521 245.79L517.521 245.79C518.724 248.124 519.842 250.293 520.766 251.749C526.071 260.108 531.846 268.965 538.845 275.982C550.524 287.69 566.153 297.084 581.435 303.238C583.433 304.043 585.48 304.731 587.525 305.419L587.526 305.42C591.838 306.87 596.144 308.319 599.972 310.847C596.279 312.034 592.449 312.856 588.612 313.68C585.078 314.439 581.536 315.2 578.088 316.248C550.569 324.614 533.058 335.686 510.902 353.176C508.732 351.922 506.584 350.138 504.513 348.418C503.654 347.705 502.809 347.003 501.981 346.354C495.598 341.353 489.423 336.56 482.381 332.502C468.623 324.574 453.59 318.875 438.298 314.674C436.159 314.086 433.924 313.681 431.687 313.275L431.686 313.275C428.589 312.713 425.486 312.15 422.628 311.101C426.029 307.95 432.861 305.543 438.914 303.41C441.683 302.434 444.29 301.516 446.33 300.61C470.118 290.046 488.599 273.371 501.945 251.062C503.455 248.538 504.644 245.848 505.832 243.162C507.171 240.13 508.509 237.103 510.305 234.324C512.484 236.019 515.165 241.219 517.521 245.79ZM765.942 153.545L765.026 153.59C750.134 155.12 734.272 157.832 724.14 170.139C716.272 179.697 714.068 193.625 715.311 205.707C716.33 215.602 720.704 226.1 728.584 232.465C734.585 237.312 741.351 239.547 748.695 241.425C749.375 241.599 750.126 241.724 750.885 241.85C752.101 242.051 753.337 242.256 754.339 242.674L754.787 242.721C768.271 244.136 789.278 246.34 802.15 243.717C802.818 242.442 803.061 241.278 803.152 239.847C803.68 231.566 804.139 159.454 802.916 155.031C802.769 154.498 802.562 154.21 802.245 153.769L802.236 153.756C790.989 152.303 777.421 152.976 765.942 153.545Z" fill="white"/>
</svg>
