<?xml version="1.0" encoding="utf-8" ?>
<svg xmlns="http://www.w3.org/2000/svg" xmlns:xlink="http://www.w3.org/1999/xlink" width="1124" height="684">
	<path fill="#FEFEFE" d="M0 0L1123.04 0C1124.37 2.08598 1123.99 5.06364 1124 7.46502L1124 496.185L1124 630.336L1124 666.452C1124 671.317 1124.66 677.344 1123.85 682.087C1123.73 682.778 1123.41 683.413 1123.04 684L0 684L0 0Z"/>
	<path d="M96.3558 16.1996C152.388 15.5303 208.471 16.2508 264.512 16.1227L327.607 16.0137C347.389 16.004 367.29 15.9085 387.005 17.7631C425.654 21.399 463.24 30.4545 496.31 51.5216C502.437 55.4245 508.608 59.4237 514.101 64.1953C522.864 71.8094 530.863 81.2462 537.733 90.5783C542.707 97.3347 547.229 104.86 550.91 112.407C553.289 117.283 554.605 123.605 558.09 127.805C559.629 127.774 560.952 124.162 561.6 122.817C570.882 103.523 580.674 86.6241 595.904 71.2662C632.519 34.3415 690.495 19.972 741.088 16.6651C762.341 15.2759 783.82 15.8757 805.108 15.9789L880.583 16.142L1067.58 16.1008C1067.76 16.3828 1067.78 16.4005 1067.94 16.7409C1068.71 18.3736 1068.06 171.637 1068.06 190.407L1068.02 550.968C1068.01 565.411 1069.14 653.829 1067.27 659.064L1065.11 659.572C1056.49 660.769 1038.11 659.745 1028.46 659.767L943.666 659.826L812.22 659.825C785.359 659.841 757.968 660.863 731.192 658.784C698.374 656.236 666.59 651.772 635.1 641.805C614.784 635.376 595.041 624.541 578.153 611.561C573.685 608.126 562.439 595.53 558.64 594.181C556.27 595.256 554.433 597.875 552.598 599.705C545.159 607.126 536.636 613.408 527.884 619.179C501.735 636.421 476.451 644.868 446.068 651.24C407.798 659.265 368.37 659.765 329.447 659.782L262.777 659.783L47.8854 659.662Q47.508 607.294 47.6713 554.927L47.6618 370.561L47.7794 16.4951L96.3558 16.1996Z"/>
	<path fill="#FEFEFE" d="M812.648 169.352C824.316 168.775 838.31 168.026 849.858 169.518C850.18 169.966 850.39 170.255 850.538 170.793C851.761 175.216 851.302 247.328 850.774 255.609C850.683 257.04 850.44 258.204 849.772 259.479C836.757 262.131 815.424 259.848 801.961 258.436C800.334 257.757 798.087 257.64 796.317 257.187C788.973 255.309 782.207 253.074 776.206 248.227C768.326 241.862 763.952 231.364 762.933 221.469C761.69 209.387 763.894 195.459 771.762 185.901C781.894 173.594 797.756 170.882 812.648 169.352Z"/>
	<path fill="#FEFEFE" d="M271.572 168.663C282.926 167.748 295.245 168.067 306.584 169.239C321.837 170.816 337.193 175.389 347.159 187.865C355.097 197.803 355.815 211.692 354.305 223.888C352.988 234.529 347.392 243.085 338.995 249.535C321.558 261.836 287.65 261.309 266.866 259.498C265.625 242.5 266.557 224.788 266.574 207.721C266.581 199.972 265.566 176.444 267.28 170.269C268.427 169.029 269.983 168.961 271.572 168.663Z"/>
	<path fill="#FEFEFE" d="M557.927 250.086C561.219 252.646 565.654 263.204 568.388 267.511C573.693 275.87 579.468 284.727 586.467 291.744C598.146 303.452 613.775 312.846 629.057 319C635.268 321.501 641.95 322.881 647.594 326.609C640.498 328.889 632.901 329.824 625.71 332.01C598.191 340.376 580.68 351.448 558.524 368.938C555.454 367.164 552.428 364.329 549.603 362.116C543.22 357.115 537.045 352.322 530.003 348.264C516.245 340.336 501.212 334.637 485.92 330.436C480.819 329.034 475.173 328.67 470.25 326.863C475.207 322.27 487.452 319.258 493.952 316.372C517.74 305.808 536.221 289.133 549.567 266.824C552.782 261.451 554.54 255.328 557.927 250.086Z"/>
	<path fill="#FEFEFE" d="M801.501 397.717C817.214 396.593 833.928 396.864 849.681 397.563C850.03 398.192 850.387 398.838 850.536 399.552C851.847 405.848 850.939 425.832 850.952 433.252L850.965 474.235C850.963 481.815 851.276 489.512 850.825 497.074C850.73 498.669 850.617 499.854 849.703 501.211C840.69 503.243 801.219 501.427 790.438 500.239C778.318 498.317 766.226 494.351 756.468 486.72Q755.612 486.045 754.791 485.329Q753.969 484.612 753.184 483.856Q752.399 483.099 751.653 482.304Q750.907 481.509 750.201 480.679Q749.495 479.848 748.832 478.983Q748.168 478.118 747.549 477.221Q746.929 476.324 746.355 475.397Q745.781 474.47 745.253 473.516Q744.726 472.562 744.247 471.583Q743.767 470.604 743.337 469.602Q742.907 468.6 742.528 467.578Q742.148 466.556 741.82 465.516Q741.492 464.477 741.216 463.422Q740.94 462.367 740.716 461.3Q740.493 460.233 740.323 459.156Q740.153 458.079 740.037 456.995C738.543 444.134 740.337 430.089 748.692 419.745C760.978 404.535 783.086 399.654 801.501 397.717Z"/>
	<path fill="#FEFEFE" d="M273.583 397.124C287.148 396.355 305.999 396.411 319.446 397.985C336.856 400.023 357.715 405.789 368.974 420.298C376.649 430.188 379.463 443.078 377.925 455.378C376.279 468.535 369.153 480.221 358.77 488.289C338.8 501.219 316.829 501.672 293.788 501.8C284.834 501.849 275.659 502.208 266.786 500.857C266.083 488.743 265.339 404.947 267.589 398.119C269.26 397.052 271.644 397.234 273.583 397.124Z"/>
</svg>
